<svg xmlns="http://www.w3.org/2000/svg" viewBox="0 0 240 56" width="270" height="56">
  <rect width="240" height="56" fill="#1a1611"/>
  <g transform="translate(30 23)">
    <rect x="0"  y="0" width="12" height="9" fill="#009be4"/>
    <rect x="17" y="0" width="12" height="9" fill="#f10c69"/>
    <rect x="34" y="0" width="12" height="9" fill="#e2b03c"/>
  </g>
  <path d="M101.070 36L99.090 36L99.090 19.918L108.550 19.918L108.550 21.722L101.026 21.722L101.026 27.068L107.978 27.068L107.978 28.872L101.070 28.872 M117.500 36.220Q116.070 36.220 115.003 35.648Q113.936 35.076 113.353 34.031Q112.770 32.986 112.770 31.600L112.770 28.300Q112.770 26.892 113.353 25.858Q113.936 24.824 115.003 24.252Q116.070 23.680 117.500 23.680Q118.930 23.680 119.997 24.252Q121.064 24.824 121.647 25.858Q122.230 26.892 122.230 28.300L122.230 30.434L114.706 30.434L114.706 31.600Q114.706 33.030 115.432 33.789Q116.158 34.548 117.500 34.548Q118.644 34.548 119.348 34.141Q120.052 33.734 120.206 32.920L122.186 32.920Q121.988 34.438 120.701 35.329Q119.414 36.220 117.500 36.220M120.448 28.938L120.294 29.114L120.294 28.300Q120.294 26.870 119.579 26.100Q118.864 25.330 117.500 25.330Q116.158 25.330 115.432 26.100Q114.706 26.870 114.706 28.300L114.706 28.938 M136.020 36L132.720 36Q131.158 36 130.289 35.164Q129.420 34.328 129.420 32.810L129.420 25.704L126.010 25.704L126.010 23.900L129.420 23.900L129.420 20.490L131.400 20.490L131.400 23.900L136.240 23.900L136.240 25.704L131.400 25.704L131.400 32.810Q131.400 34.196 132.720 34.196L136.020 34.196 M145.388 36.220Q143.936 36.220 142.847 35.670Q141.758 35.120 141.164 34.075Q140.570 33.030 140.570 31.600L140.570 28.300Q140.570 26.848 141.164 25.814Q141.758 24.780 142.847 24.230Q143.936 23.680 145.388 23.680Q147.478 23.680 148.754 24.802Q150.030 25.924 150.096 27.860L148.116 27.860Q148.050 26.694 147.335 26.067Q146.620 25.440 145.388 25.440Q144.090 25.440 143.320 26.177Q142.550 26.914 142.550 28.278L142.550 31.600Q142.550 32.964 143.320 33.712Q144.090 34.460 145.388 34.460Q146.620 34.460 147.335 33.822Q148.050 33.184 148.116 32.040L150.096 32.040Q150.030 33.976 148.754 35.098Q147.478 36.220 145.388 36.220 M156.604 36L154.624 36L154.624 19.940L156.604 19.940L156.604 23.900L156.604 26.210L157.022 26.210L156.604 26.672Q156.604 25.242 157.462 24.461Q158.320 23.680 159.838 23.680Q161.664 23.680 162.742 24.802Q163.820 25.924 163.820 27.860L163.820 36L161.840 36L161.840 28.080Q161.840 26.782 161.147 26.067Q160.454 25.352 159.266 25.352Q158.034 25.352 157.319 26.122Q156.604 26.892 156.604 28.300 M172.044 36.220Q170.130 36.220 169.030 35.241Q167.930 34.262 167.930 32.590Q167.930 30.896 169.030 29.928Q170.130 28.960 172 28.960L175.740 28.960L175.740 27.750Q175.740 26.628 175.069 26.023Q174.398 25.418 173.166 25.418Q172.088 25.418 171.362 25.869Q170.636 26.320 170.526 27.090L168.546 27.090Q168.744 25.528 170.020 24.604Q171.296 23.680 173.210 23.680Q175.300 23.680 176.510 24.758Q177.720 25.836 177.720 27.684L177.720 36L175.784 36L175.784 33.690L175.454 33.690L175.784 33.360Q175.784 34.680 174.761 35.450Q173.738 36.220 172.044 36.220M172.528 34.658Q173.936 34.658 174.838 33.954Q175.740 33.250 175.740 32.150L175.740 30.434L172.044 30.434Q171.054 30.434 170.482 30.984Q169.910 31.534 169.910 32.480Q169.910 33.492 170.603 34.075Q171.296 34.658 172.528 34.658 M184.822 36L182.842 36L182.842 23.900L184.778 23.900L184.778 26.210L185.240 26.210L184.602 27.640Q184.602 25.682 185.449 24.681Q186.296 23.680 187.968 23.680Q189.882 23.680 191.015 24.879Q192.148 26.078 192.148 28.124L192.148 28.850L190.168 28.850L190.168 28.300Q190.168 26.870 189.475 26.111Q188.782 25.352 187.506 25.352Q186.252 25.352 185.537 26.122Q184.822 26.892 184.822 28.300 M198.722 36L196.742 36L196.742 23.900L198.678 23.900L198.678 26.210L199.140 26.210L198.502 27.640Q198.502 25.682 199.349 24.681Q200.196 23.680 201.868 23.680Q203.782 23.680 204.915 24.879Q206.048 26.078 206.048 28.124L206.048 28.850L204.068 28.850L204.068 28.300Q204.068 26.870 203.375 26.111Q202.682 25.352 201.406 25.352Q200.152 25.352 199.437 26.122Q198.722 26.892 198.722 28.300" fill="#fffcfb" stroke="#fffcfb" stroke-width="0.35" stroke-linejoin="round"/>
</svg>
